<svg width="31" height="36" viewBox="0 0 31 36" fill="none" xmlns="http://www.w3.org/2000/svg"><path d="M30.96 21.364c-.626 8.333-7.545 14.61-15.46 14.626C7.569 35.99.65 29.697.04 21.364-.588 13.048 6.332 5.76 15.5 5.775c9.167 0 16.087 7.29 15.46 15.59Z" fill="#E74C3C"/><path d="M19.658 6.306c-.129-.049-.257-.08-.402-.129A16.534 16.534 0 0 0 15.5 5.76c-2.328 0-12.202 1.573-9.183 5.683.626.85 1.621 1.333 2.616 1.67 2.987.995 6.358.85 9.168-.643 1.557-.818 3.66-1.83 5.458-1.091 2.248.931 2.617 4.415 2.617 6.518 0 7.048-5.988 13.036-13.036 13.036-7.048 0-12.732-5.7-13.004-12.538a13.777 13.777 0 0 0-.097 2.938c.626 8.332 7.546 14.61 15.46 14.625 7.932 0 14.851-6.293 15.461-14.625.53-7-4.302-13.245-11.302-15.06v.033Z" fill="#C0392B"/><path d="M13.011 9.147s-.032-.144-.064-.369c-.048-.257-.128-.562-.208-.931-.113-.37-.241-.803-.434-1.252-.193-.45-.401-.9-.658-1.333-.514-.867-1.172-1.605-1.702-2.039a5.302 5.302 0 0 0-.658-.465l-.257-.129h-.048A1.439 1.439 0 0 1 8.42.72a1.377 1.377 0 0 1 1.878-.546c.064.032.129.08.177.112 0 0 .144.113.385.29.225.192.546.48.867.834.658.722 1.333 1.798 1.798 2.938.241.562.418 1.14.546 1.686.128.546.225 1.06.289 1.509.048.465.08.835.096 1.06 0 .24.016.385.016.385a.737.737 0 0 1-.706.77.732.732 0 0 1-.755-.594v-.016Z" fill="#522100"/><path d="M18.951 4.46c1.718-.996 3.725-.675 5.652-.642.786 0 4.447-.193 4.591-1.43-.305 2.778-1.541 6.503-4.56 7.225-1.38.337-2.825.193-4.222.048-1.974-.192-3.949-.401-5.924-.594a13.652 13.652 0 0 1 3.918-4.27c.192-.129.369-.257.545-.353v.016Z" fill="#27AE60"/><path d="M5.464 14.156a.788.788 0 0 1-.787.787.788.788 0 0 1-.786-.787c0-.434.353-.787.786-.787.434 0 .787.353.787.787ZM6.829 17.416c0 .45-.37.819-.82.819a.809.809 0 0 1-.802-.819c0-.45.37-.803.803-.803.433 0 .819.37.819.803ZM5.079 17.64a.603.603 0 0 1-.594.595.603.603 0 0 1-.594-.594c0-.321.256-.594.594-.594.337 0 .594.273.594.594ZM8.741 20.69a1.363 1.363 0 1 1-2.73 0 1.363 1.363 0 1 1 2.73 0ZM9.416 18.7a.466.466 0 1 1-.932 0 .466.466 0 0 1 .932 0ZM4.984 20.466a.788.788 0 0 1-.787.787.788.788 0 0 1-.787-.787.788.788 0 0 1 1.573 0ZM12.178 20.948a.83.83 0 0 1-.835.835.83.83 0 0 1-.835-.835.83.83 0 0 1 .835-.835.83.83 0 0 1 .835.835ZM13.88 20.369a.61.61 0 1 0 0-1.22.61.61 0 0 0 0 1.22ZM10.17 23.259a.61.61 0 1 1-1.22 0 .61.61 0 0 1 1.22 0Z" fill="#FF8073"/></svg>