<svg width="47" height="48" viewBox="0 0 47 48" fill="none" xmlns="http://www.w3.org/2000/svg"><path d="M5.508 7.104c6.962 8.217 30.394 18.36 39.984 17.54.302-.034-.067 2.025.134 2.109C34.73 38.318 7.198 37.313 5.508 7.103Z" fill="#F39C12"/><path d="M34.263 30.803c-10.695 0-19.03-7.733-21.59-17.808-3.03-1.958-5.557-3.983-7.18-5.891 1.59 28.603 26.343 31.03 38.226 21.373-2.962 1.472-6.192 2.31-9.473 2.31l.017.016Z" fill="#E67E22"/><path d="M5.91 6.685c.05.134-.453.301-.403.418 4.436 12.352 19.248 26.01 39.985 17.54.284-.117.435-1.506.72-1.64-9.59.954-33.625-10.963-40.303-16.335v.017Z" fill="#F1C40F"/><path d="m44.993 24.845 1.222-1.841S47 24.293 47 24.845s-.72 1.841-1.372 1.908c-.653.067-1.138-1.707-.636-1.908Z" fill="#34495E"/><path d="M10.747 10.618c0 .435-.352.803-.77.803-.418 0-.77-.351-.77-.803 0-.452.351-.804.77-.804.418 0 .77.352.77.804ZM11.268 13.681c0 .368-.284.67-.636.67-.351 0-.636-.302-.636-.67 0-.368.285-.67.636-.67.352 0 .636.302.636.67ZM16.155 14.535c0 .569-.436 1.02-.988 1.02s-.987-.451-.987-1.02c0-.57.435-1.021.987-1.021.553 0 .988.452.988 1.02ZM17.762 16.258c.323 0 .585-.277.585-.62 0-.341-.262-.618-.585-.618-.324 0-.586.277-.586.619 0 .342.262.62.586.62ZM20.171 16.007c0 .25-.2.451-.435.451a.447.447 0 0 1-.435-.451c0-.252.2-.452.435-.452.234 0 .435.2.435.452ZM16.674 17.765c0 .435-.334.787-.753.787-.418 0-.753-.352-.753-.787 0-.435.335-.787.753-.787.419 0 .753.352.753.787ZM24.019 18.216c0 .25-.201.451-.435.451a.447.447 0 0 1-.436-.451c0-.252.201-.452.436-.452.234 0 .435.2.435.452ZM28.071 22.317c.527 0 .954-.442.954-.988 0-.545-.427-.987-.954-.987-.527 0-.954.442-.954.987 0 .546.427.988.954.988ZM30.967 21.747a.407.407 0 0 1-.401.402.407.407 0 0 1-.402-.402c0-.217.184-.401.402-.401.217 0 .401.184.401.401ZM34.027 21.95c0 .334-.268.619-.586.619-.318 0-.586-.268-.586-.62 0-.351.268-.619.586-.619.318 0 .586.268.586.62ZM36.305 22.484a.518.518 0 0 1-.502.518.518.518 0 0 1-.502-.518c0-.285.234-.52.502-.52s.502.235.502.52ZM4.79 7.623c1.422 10.829 15.548 32.704 23.983 37.508.268.15-1.138 1.64-1.02 1.84C12.505 50.37-9.905 33.767 4.79 7.623Z" fill="#F39C12"/><path d="M5.36 7.505c-.033.134-.536 0-.569.117C1.912 20.46 6.984 40.326 28.775 45.13c.301.066 1.172-1.005 1.473-.954C21.745 39.472 8.055 15.79 5.36 7.488v.017Z" fill="#F1C40F"/><path d="m28.238 45.011 1.992-.82s-.034 1.523-.318 1.975c-.285.452-1.59 1.122-2.176.804-.586-.318-.034-2.076.485-1.959h.017Z" fill="#34495E"/><path d="M7.283 13.548a.75.75 0 0 1-1.071.217.82.82 0 0 1-.218-1.104.75.75 0 0 1 1.071-.218.82.82 0 0 1 .218 1.105ZM6.08 16.393a.63.63 0 0 1-.888.184c-.3-.2-.368-.619-.184-.92a.63.63 0 0 1 .887-.184c.302.2.369.619.185.92ZM9.694 19.907a.968.968 0 0 1-1.372.284c-.452-.318-.57-.954-.285-1.423a.965.965 0 0 1 1.373-.284c.451.318.569.954.284 1.422ZM10.934 22.084a.58.58 0 0 1-.82.167.632.632 0 0 1-.168-.854.58.58 0 0 1 .82-.167c.268.184.352.569.168.854ZM12.255 23.439a.436.436 0 0 1-.602.134.452.452 0 0 1-.117-.62.436.436 0 0 1 .602-.133c.201.134.251.418.117.619ZM8.406 22.887a.728.728 0 0 1-1.038.217c-.351-.234-.435-.72-.217-1.088.234-.351.703-.452 1.037-.217.335.234.436.72.218 1.088ZM14.294 27.472a.436.436 0 0 1-.602.134.452.452 0 0 1-.117-.62.436.436 0 0 1 .602-.133c.201.134.251.418.117.62ZM16.79 32.928a.933.933 0 0 1-1.305.284 1.003 1.003 0 0 1-.267-1.355.949.949 0 0 1 1.322-.285c.435.302.552.904.268 1.356h-.017ZM18.197 34.384a.402.402 0 0 1-.552.117.426.426 0 0 1-.117-.569.402.402 0 0 1 .552-.117c.184.117.235.385.117.569ZM20.656 36.326a.58.58 0 0 1-.82.167.632.632 0 0 1-.167-.854.58.58 0 0 1 .82-.167c.268.184.351.57.167.854ZM22.246 38.083a.511.511 0 0 1-.703.151.515.515 0 0 1-.134-.72.511.511 0 0 1 .703-.15.515.515 0 0 1 .134.72Z" fill="#F39C12"/><path d="M6.981.291c.52-.468 1.774-.217 2.327-.033.62.217 1.037.452 1.506.954.335.351.653.703.988 1.054.15.151.3.318.334.536.034.15 0 .318-.033.469-.034.15-.067.318-.1.468-.05.251-.101.519-.185.753-.284.787-1.004 1.44-1.807 1.49-.82.05-1.657-.57-1.758-1.406 0 .084-.569.536-.652.636-.168.2-.369.435-.502.653-.318.502-.252 1.205.117 1.673.1.118.217.252.2.402 0 .134-.117.234-.217.318-.318.251-.72.552-1.038.234-.25-.234-.401-.87-.301-1.205-.1.385-.218.754-.335 1.138-.1.335-.067.47-.401.436-.452-.05-.586-.536-.553-.938.05-.67.536-1.439.82-2.025.636-1.339 1.34-2.745 1.34-4.284 0-.369-.034-.737.1-1.072.033-.1.1-.184.184-.25H6.98Z" fill="#F1C40F"/><path d="M7.583.04c.1.168.167.37.15.654 0 .2-.05.385-.15.552-.05.402.05.736.284 1.004.034.167.067.318.084.469.285.284.419.602.469.987.602.368 1.339.686 1.941.653.67-.017 1.155-.536 1.69-.97 0-.051.017-.101.034-.151.034-.151.067-.318.034-.47-.05-.217-.201-.384-.335-.535-.335-.351-.653-.703-.988-1.054C10.328.677 9.91.443 9.29.225 8.905.091 8.17-.06 7.583.025V.04Z" fill="#FFDE59"/></svg>