<svg width="54" height="54" viewBox="0 0 54 54" fill="none" xmlns="http://www.w3.org/2000/svg"><path d="M19.31 50.436a21.1 21.1 0 0 1-4.763-1.042C4.413 45.87-.357 35.114 2.927 23.223 6.45 10.488 19.026 1.446 31.577 2.646c10.069.995 18.203 7.808 19.84 16.56 1.06 5.622-.685 11.518-4.572 15.37-1.966 1.954-4.277 3.203-6.315 4.282-1.456.783-2.829 1.514-3.881 2.395-.836.686-1.557 1.6-2.323 2.568-1.578 2.012-3.557 4.496-7.15 5.757-2.406.826-5.135 1.127-7.886.856l.02.002Z" fill="#E3976E"/><path d="M19.472 48.816a18.342 18.342 0 0 1-4.204-.928C4.923 44.305 2.795 33.337 5.188 24.668c3.16-11.431 14.85-19.872 26.073-18.802 7.376.728 15.998 5.6 17.673 14.572.9 4.838-.584 9.893-3.885 13.192-1.705 1.703-3.764 2.8-5.741 3.866-1.56.83-3.038 1.63-4.303 2.668-1.029.844-1.82 1.87-2.673 2.928-1.531 1.937-3.11 3.949-6.027 4.96-2.061.723-4.431.981-6.85.742l.017.022Z" fill="#ECF0F1"/><path d="M6.839 24.299C9.69 13.98 20.286 5.649 31.179 6.686c7.435.715 14.795 5.599 16.226 13.247.776 4.116-.43 8.745-3.445 11.738-2.82 2.815-6.887 3.89-9.935 6.426-3.07 2.554-4.22 6.223-8.199 7.604-3.163 1.106-6.847.9-9.972-.178C6.786 42.381 4.46 32.832 6.821 24.278l.018.021Z" fill="#C0392B"/><path d="M27.155 16.514c-1.875.426-2.902 2.452-3.401 4.314-.48 1.864-.743 3.926-2.064 5.332-1.082 1.174-2.689 1.686-4.104 2.452-1.414.747-2.782 2.03-2.723 3.632 3.656-1.51 8.195-.59 10.969 2.246.662.677 1.254 1.464 2.049 1.996 1.703 1.114 4.203-.058 2.74-2.015-1.342-1.768-2.773-3.032-3.665-5.17-1.691-4.028-1.75-8.822.18-12.789l.019.002Z" fill="#ECF0F1"/><path d="M38.47 12.273c4.384.689 7.952 4.864 7.945 9.316-.013 3.723-2.198 7.093-4.643 9.905-1.666 1.904-3.743 3.787-6.27 3.833-2.784.06-5.124-2.18-6.458-4.637-3.938-7.207-.972-20.075 9.425-18.418Z" fill="#E74C3C"/><path d="M28.89 12.114c.697-.266 1.409-.491 2.003-.925.595-.434 1.043-1.178.878-1.903-.287-1.29-2.062-1.465-3.365-1.24-5.113.895-9.93 3.394-13.567 7.093-3.636 3.7-6.104 8.54-6.925 13.66-.12.816-.223 1.653.012 2.464.235.811.835 1.52 1.647 1.68 1.393.256 2.457-1.137 3.335-2.252 1.446-1.867 3.368-3.371 5.495-4.363 2.375-1.105 3.265-.938 3.4-3.703.227-4.49 2.819-8.785 7.086-10.491l.002-.02ZM20.18 32.67c3.483.64 6.62 2.979 8.22 6.132.528 1.037.883 2.235.5 3.32-.517 1.446-2.16 2.111-3.65 2.437-4.43.961-9.18.196-13.097-2.043-1.25-.714-2.458-1.641-3.018-2.958-2.348-5.354 7.698-7.514 11.083-6.884l-.039-.004Z" fill="#E74C3C"/><path d="M34.125 31.526a.52.52 0 0 1-.558.457.52.52 0 0 1-.457-.558.52.52 0 0 1 .557-.457.52.52 0 0 1 .458.558ZM37.777 30.232a1.138 1.138 0 1 1-2.265-.225 1.138 1.138 0 0 1 2.265.225ZM39.88 29.711a.414.414 0 0 1-.45.37.402.402 0 0 1-.369-.45.402.402 0 0 1 .45-.37.402.402 0 0 1 .37.45ZM33.995 27.652a1.054 1.054 0 0 1-1.157.95 1.054 1.054 0 0 1-.95-1.158 1.054 1.054 0 0 1 1.158-.95c.585.059 1.007.573.95 1.159ZM17.515 23.935a.657.657 0 0 1-.727.579.657.657 0 0 1-.6-.71.674.674 0 0 1 .73-.598c.37.037.634.358.597.73ZM18.494 21.608a.372.372 0 0 1-.407.334.36.36 0 0 1-.335-.407.36.36 0 0 1 .408-.334.36.36 0 0 1 .334.407ZM20.498 23.462a.766.766 0 0 1-.837.686.779.779 0 0 1-.685-.836.779.779 0 0 1 .836-.686c.41.04.726.426.686.836ZM14.017 37.617a.569.569 0 1 1-1.132-.112.569.569 0 0 1 1.132.112ZM16.85 35.85a1.18 1.18 0 0 1-1.286 1.054 1.18 1.18 0 0 1-1.055-1.286 1.18 1.18 0 0 1 1.287-1.055 1.18 1.18 0 0 1 1.055 1.286ZM18.465 36.245a.393.393 0 0 1-.43.351.393.393 0 0 1-.35-.428.393.393 0 0 1 .428-.352.393.393 0 0 1 .352.429ZM36.142 16.259a.766.766 0 0 1-.836.686.779.779 0 0 1-.686-.836.779.779 0 0 1 .836-.686c.41.04.727.426.686.836ZM44.027 21.215a.548.548 0 1 1-1.093-.108.536.536 0 0 1 .6-.492c.313.03.524.288.493.6Z" fill="#C0392B"/></svg>