<svg width="277" height="229" viewBox="0 0 277 229" fill="none" xmlns="http://www.w3.org/2000/svg"><path d="M239.932 278.203H74.462c-6.165 0-11.787-2.828-15.432-7.767-3.645-4.94-4.735-11.141-2.964-17.035l17.477-57.847c2.487-8.176 9.88-13.661 18.397-13.661h50.387c5.382 0 10.527 2.282 14.172 6.234 3.645 3.952 5.451 9.301 5.008 14.649l-3.782 44.391c-.238 2.623.648 5.144 2.419 7.086 1.772 1.942 4.225 2.998 6.848 2.998h26.88a4.959 4.959 0 0 1 4.974 4.974 4.958 4.958 0 0 1-4.974 4.974h-26.88c-5.383 0-10.527-2.283-14.172-6.234-3.646-3.952-5.451-9.301-5.008-14.65l3.781-44.39c.239-2.624-.647-5.145-2.419-7.087-1.771-1.941-4.224-2.998-6.847-2.998H91.94a9.24 9.24 0 0 0-8.892 6.61l-17.477 57.847c-.852 2.862-.34 5.86 1.431 8.245a9.216 9.216 0 0 0 7.46 3.747h165.47a4.959 4.959 0 0 1 4.974 4.974 4.958 4.958 0 0 1-4.974 4.974v-.034Z" fill="#BDC3C7"/><path d="M235.025 184.48H82.264c-11.004 0-20.577-7.801-22.826-18.567L32.797 37.783l235.036 51.613-9.71 74.746c-1.499 11.583-11.447 20.304-23.132 20.304l.034.034ZM45.675 50.797l23.507 113.106c1.294 6.167 6.78 10.664 13.082 10.664h152.761c6.711 0 12.401-5.008 13.252-11.652l8.552-65.717-211.154-46.4Z" fill="#BDC3C7"/><path d="M105.328 184.481c-2.418 0-4.531-1.737-4.905-4.19L80.936 55.295a4.995 4.995 0 0 1 4.156-5.69 5.013 5.013 0 0 1 5.69 4.157l19.486 124.996a4.995 4.995 0 0 1-4.156 5.689c-.273.034-.511.068-.784.068v-.034ZM135.953 184.481a4.953 4.953 0 0 1-4.939-4.633L123.178 64.8c-.17-2.725 1.874-5.11 4.633-5.28 2.692-.17 5.11 1.873 5.281 4.633l7.835 115.048c.205 2.725-1.873 5.11-4.633 5.28h-.341ZM167.947 181.142a4.958 4.958 0 0 1-4.974-4.974V72.532a4.958 4.958 0 0 1 4.974-4.973 4.958 4.958 0 0 1 4.974 4.974v103.635a4.959 4.959 0 0 1-4.974 4.974ZM200.039 184.482h-.239c-2.759-.136-4.871-2.453-4.735-5.179l4.497-96.685a4.978 4.978 0 0 1 4.974-4.735h.238c2.76.136 4.872 2.453 4.736 5.178l-4.497 96.685a4.98 4.98 0 0 1-4.974 4.736ZM228.143 181.142h-.511c-2.725-.273-4.735-2.726-4.463-5.451l8.892-88.441c.273-2.725 2.691-4.701 5.451-4.463a4.978 4.978 0 0 1 4.463 5.451l-8.892 88.441a4.979 4.979 0 0 1-4.94 4.463Z" fill="#BDC3C7"/><path d="M259.009 123.874c-.205 0-.409 0-.648-.034L48.571 97.164c-2.726-.34-4.634-2.827-4.293-5.553.34-2.725 2.861-4.633 5.553-4.292l209.791 26.675c2.725.341 4.633 2.828 4.292 5.553-.306 2.521-2.452 4.361-4.939 4.361l.034-.034ZM255.502 150.992h-.205L58.554 143.02c-2.76-.102-4.871-2.419-4.77-5.179.103-2.725 2.454-4.837 5.18-4.769l196.742 7.972c2.726.102 4.872 2.419 4.77 5.178-.102 2.692-2.317 4.77-4.974 4.77Z" fill="#BDC3C7"/><path d="m261.597 106.636-39.144-9.64 5.587-22.656 39.145 9.641c6.268 1.533 10.084 7.87 8.551 14.104-1.533 6.269-7.87 10.084-14.105 8.551h-.034Z" fill="#E74C3C"/><path d="M272.298 86.809c-2.998 6.711-11.243 10.152-18.295 8.38-9.232-2.316-18.295-4.905-26.914-9.027a11.254 11.254 0 0 1-1.737-1.056l-2.93 11.855 39.144 9.641c6.269 1.533 12.571-2.282 14.104-8.55 1.056-4.26-.409-8.484-3.407-11.277l.035.034ZM24.45 5.42l33.455 35.635-20.61 19.35-33.456-35.6c-5.348-5.69-5.076-14.65.614-19.999C10.142-.543 19.102-.27 24.45 5.42Z" fill="#C0392B"/><path d="M20.296 14.822c0 3.713-3.032 6.745-6.746 6.745-3.713 0-6.745-3.032-6.745-6.745 0-3.714 3.032-6.746 6.745-6.746 3.714 0 6.746 3.032 6.746 6.746ZM43.459 41.667a4.187 4.187 0 0 1-4.19 4.19 4.187 4.187 0 0 1-4.19-4.19 4.187 4.187 0 0 1 4.19-4.19 4.187 4.187 0 0 1 4.19 4.19Z" fill="#ECF0F1"/></svg>