<svg width="37" height="35" viewBox="0 0 37 35" fill="none" xmlns="http://www.w3.org/2000/svg"><path d="M28.985 3.11a1.543 1.543 0 0 1-1.198.67c-.77.029-1.412-.67-1.412-1.412v-.043c0-.085 0-.157.029-.242L21.169 0l-4.822 3.595c.143.784-.3 1.697-1.34 1.697-.272 0-.514-.071-.7-.185l-3.666 2.738c.885.728.585 2.54-.87 2.54-.699 0-1.127-.414-1.284-.928L3.58 13.11c.115.785-.328 1.655-1.355 1.655-.257 0-.47-.057-.656-.157L0 15.777l36.203-9.8-7.218-2.867Z" fill="#FFDF5C"/><path d="m36.103 8.986.1-3.01L0 15.777l.071 1.67c.229.1.414.313.414.641v.086c0 .3-.143.499-.342.613.756.656.798 1.954.114 2.668l.071 1.44h.014c1.327 0 1.341 1.997.072 2.083l.042.984c1.712.343 1.77 2.939.157 3.424l.029.57c.442-.242 1.141-.057 1.141.614v.085c0 .642-.642.842-1.084.642l.143 3.081 34.634-7.845.071-1.898c-.67-.2-.656-1.269.057-1.426l.114-3.338h-.028c-.97 0-.97-1.498 0-1.498a.18.18 0 0 1 .085.015v-.5c-.599-.142-1.07-.756-1.07-1.383v-.086c0-.713.528-1.255 1.184-1.383l.1-2.853c-.228.256-.556.428-.998.428-1.826 0-1.826-2.825 0-2.825.242 0 .442.057.613.129-.085-.371.072-.814.5-.913v-.015ZM16.704 9.073c0 .656-1.155 1.184-2.596 1.184-1.44 0-2.596-.528-2.596-1.184 0-.657 1.155-1.184 2.596-1.184 1.44 0 2.596.527 2.596 1.184ZM10.043 11.227c0 .214-.357.385-.799.385-.442 0-.799-.171-.799-.385s.357-.385.8-.385c.441 0 .798.171.798.385ZM12.868 11.156c0 .17-.3.313-.67.313-.371 0-.67-.142-.67-.313 0-.172.299-.314.67-.314.37 0 .67.142.67.314ZM23.067 5.576c0 .571-1.184 1.042-2.639 1.042-1.455 0-2.639-.471-2.639-1.042 0-.57 1.184-1.04 2.639-1.04 1.455 0 2.639.47 2.639 1.04ZM25.104 3.88c0 .213-.457.384-1.013.384-.556 0-1.013-.17-1.013-.385 0-.214.457-.385 1.013-.385.556 0 1.013.171 1.013.385ZM20.798 8.045c0 .228-.428.413-.956.413-.527 0-.955-.185-.955-.413 0-.229.428-.414.955-.414.528 0 .956.185.956.414ZM31.823 5.576c0 .571-1.141 1.042-2.568 1.042-1.426 0-2.567-.471-2.567-1.042 0-.57 1.14-1.04 2.567-1.04 1.427 0 2.568.47 2.568 1.04ZM22.28 2.096c0 .157-.285.3-.642.3-.357 0-.642-.128-.642-.3 0-.17.285-.3.642-.3.357 0 .642.13.642.3ZM25.963 7.333c0 .157-.3.3-.685.3-.385 0-.684-.13-.684-.3 0-.171.3-.3.684-.3.386 0 .685.129.685.3ZM6.532 12.908c0 .243-.385.428-.856.428-.47 0-.856-.185-.856-.428 0-.242.385-.428.856-.428.47 0 .856.2.856.428Z" fill="#F1C40F"/><path d="M13.336 21.154c0-1.626 1.17-2.953 2.596-2.953 1.426 0 2.596 1.327 2.596 2.953s-1.17 2.953-2.596 2.953c-1.426 0-2.596-1.327-2.596-2.953ZM29.672 10.37c0-.727.513-1.311 1.155-1.311s1.156.584 1.156 1.312c0 .727-.514 1.312-1.156 1.312-.642 0-1.155-.585-1.155-1.312ZM6.105 25.977c0-1.327.942-2.397 2.112-2.397 1.17 0 2.11 1.07 2.11 2.397 0 1.326-.94 2.396-2.11 2.396s-2.112-1.07-2.112-2.396ZM25.305 24.92c0-1.398.998-2.54 2.24-2.54 1.24 0 2.239 1.128 2.239 2.54 0 1.412-.999 2.539-2.24 2.539-1.24 0-2.24-1.127-2.24-2.54ZM15.578 29.285c0-.499.357-.898.799-.898.442 0 .799.4.799.898 0 .5-.357.899-.8.899-.441 0-.798-.4-.798-.899ZM18.887 13.338c0-.785.556-1.412 1.24-1.412.685 0 1.242.627 1.242 1.412 0 .785-.557 1.412-1.241 1.412-.685 0-1.241-.627-1.241-1.412ZM8.016 19.071c0-1.127.813-2.04 1.797-2.04s1.797.913 1.797 2.04-.813 2.04-1.797 2.04-1.797-.913-1.797-2.04ZM1.7 24.279c0-.357.256-.642.57-.642.314 0 .57.285.57.642 0 .356-.256.642-.57.642-.314 0-.57-.286-.57-.642Z" fill="#F39C12"/><path d="M5.094 28.729c0-.614.442-1.127.984-1.127s.984.499.984 1.127c0 .627-.442 1.126-.984 1.126s-.984-.499-.984-1.127ZM28.285 15.149c0-1.255.899-2.268 1.997-2.268 1.099 0 1.997 1.013 1.997 2.268s-.898 2.268-1.997 2.268c-1.098 0-1.997-1.013-1.997-2.268ZM30.285 23.08c0-.657.47-1.2 1.056-1.2.585 0 1.055.543 1.055 1.2 0 .655-.47 1.197-1.055 1.197s-1.056-.527-1.056-1.198ZM1.867 18.202c0-.7.5-1.284 1.127-1.284.628 0 1.127.57 1.127 1.284 0 .713-.5 1.284-1.127 1.284-.628 0-1.127-.571-1.127-1.284ZM23.394 19.898c.457 0 .827-.421.827-.94 0-.52-.37-.942-.827-.942-.457 0-.828.421-.828.941s.37.941.828.941ZM25.434 14.536c0-.656.47-1.198 1.055-1.198s1.056.528 1.056 1.198c0 .67-.471 1.198-1.056 1.198-.585 0-1.055-.542-1.055-1.198ZM17.832 22.438c0-.656.47-1.198 1.056-1.198.584 0 1.055.528 1.055 1.198 0 .67-.47 1.199-1.055 1.199s-1.056-.542-1.056-1.199ZM13.05 28.8c0-.656.471-1.198 1.056-1.198.585 0 1.056.527 1.056 1.198 0 .67-.47 1.198-1.056 1.198-.585 0-1.055-.542-1.055-1.198ZM11.156 16.476c0-.385.285-.699.628-.699.342 0 .627.314.627.7 0 .384-.27.698-.627.698s-.628-.314-.628-.699Z" fill="#F39C12"/></svg>