<svg width="77" height="47" viewBox="0 0 77 47" fill="none" xmlns="http://www.w3.org/2000/svg"><path d="M0 32.306c5.25.901 26.899 9.933 31.522 14.674 4.37-8.032 10.521-4.624 24-13.792C69 24.019 70.137 16.143 76.172 12.695 69.94 12.617 47.47 4.428 42.14 0c-2.077 7.17-14.086 8.17-20.826 13.498C14.575 18.828 6.641 29.778 0 32.286v.02Z" fill="#ECF0F1"/><path d="M2.625 30.994c5.25.9 25.351 9.404 29.975 14.145 4.564-4.624 9.443-2.782 22.922-11.931C69 24.038 69.745 17.338 74.584 13.832c-6.23-.079-28.78-6.309-34.109-10.736-2.9 3.017-12.4 5.093-19.14 10.422-6.74 5.33-14.713 15.164-18.71 17.476Z" fill="#C0392B"/><path d="M60.243 11.266c-6.504 1.156-12.95 2.586-19.356 4.232-11.892 3.036-23.823 6.308-34.5 12.44-1.45 1.372-2.743 2.469-3.782 3.056 1.352.236 3.684.96 6.466 2.018 11.5-6.602 24.254-10.657 37.027-14.243 7.582-2.115 15.223-3.78 22.922-5.328.274-.06.549-.118.823-.177-2.586-.47-5.72-1.214-9.012-2.096-.196.04-.412.078-.608.118l.02-.02Z" fill="#F39C12"/><path d="M61.79 17.887c-1.704.862-3.193 1.607-4.996 2.233-3.546 1.235-4.231 2.508-6.582 5.251-2.724 3.174-6.015 5.329-9.09 8.13-3.586 3.272-6.368 7.17-8.974 11.226.157.137.314.275.431.412 4.565-4.624 9.444-2.782 22.922-11.931 13.342-9.071 14.204-15.732 18.906-19.259-4.153 1.626-8.581 1.9-12.636 3.938h.02Z" fill="#9E2F23"/><path d="M48.409 19.337c0 4.369-5.603 7.915-12.52 7.915-6.915 0-12.518-3.546-12.518-7.915 0-4.37 5.603-7.915 12.519-7.915s12.519 3.546 12.519 7.915Z" fill="#F1C40F"/></svg>