<svg width="46" height="42" viewBox="0 0 46 42" fill="none" xmlns="http://www.w3.org/2000/svg"><path d="M41.073 12.377h-36.5c-2.337 7.325 2.083 22.776 2.083 22.776 0 3.431 7.241 6.189 16.146 6.189 8.904 0 16.145-2.779 16.145-6.189 0 0 4.42-15.45 2.105-22.776h.02Z" fill="#8E44AD"/><path d="M31.788 13.998c-5.325-.021-10.63.084-15.934.315-1.432.063-2.842.127-4.274.21-1.43.127-2.968-.02-4.42-.02-.126 0-.274 0-.4.042-.253.084-.421.295-.59.484a7.75 7.75 0 0 1-2.23 1.726c-.043.969 0 2 .041 3.031.127.042.253.106.358.19.569.505.232 1.452.527 2.147.4.947 1.705 1.052 2.694.8.99-.232 2.084-.632 2.989-.169.863.442 1.2 1.474 1.537 2.379.336.905.926 1.916 1.894 2 .926.084 1.705-.716 2.59-.99 1.536-.484 3.094.569 4.293 1.621 1.221 1.053 2.59 2.253 4.19 2.063 2.567-.295 3.788-3.957 6.378-4.126 2.357-.168 4.441 3.495 6.714 1.2.674-.673 1.01-1.62 1.41-2.505.4-.884.948-1.768 1.853-2.126.021 0 .063 0 .105-.02.295-2.8.38-5.621 0-7.958a9.32 9.32 0 0 0-1.536-.21 354.307 354.307 0 0 0-8.189-.105v.02Z" fill="#64307A"/><path d="M44.589 16.504c.484.063.947.526 1.284-.21.147-.296.126-.653.126-.97-.021-.8-.042-1.599-.084-2.399-2.758.61-4.82-1.052-7.494-1.095a354.307 354.307 0 0 0-8.188-.105c-5.326-.02-10.63.085-15.935.316-1.432.063-2.842.126-4.273.21-1.432.127-2.968-.02-4.42-.02-.127 0-.275 0-.4.042-.253.084-.422.294-.59.484a8.113 8.113 0 0 1-4.568 2.568c-.105.737-.084 1.62.61 1.979.653.357 1.558-.127 2.147.4.569.505.232 1.452.527 2.147.4.947 1.705 1.052 2.694.8.99-.232 2.084-.632 2.99-.169.862.442 1.199 1.474 1.536 2.379.337.905.926 1.915 1.894 2 .926.105 1.705-.695 2.59-.99 1.536-.484 3.094.569 4.294 1.621 1.2 1.052 2.589 2.252 4.189 2.063 2.568-.295 3.789-3.957 6.378-4.126 2.357-.168 4.441 3.494 6.715 1.2.673-.674 1.01-1.62 1.41-2.505.4-.884.947-1.768 1.852-2.126 1.327-.547 3.347.168 3.832-1.62.147-.57-.169-1.517.61-1.832.105-.042.21-.042.295-.042h-.021Z" fill="#F1DF98"/><path d="M.467 17.156a.84.84 0 0 1 .4-.232c2.147-.758 3.81-2.589 5.662-3.873.358-.253.716-.526 1.095-.8a64.574 64.574 0 0 0-2-.042c-.127 0-.274 0-.4.042-.253.084-.421.295-.59.484a8.113 8.113 0 0 1-4.567 2.568c-.106.674-.085 1.432.42 1.853h-.02ZM8.15 16.714c.8-1.01 1.726-1.895 2.568-2.842.4-.61.842-1.179 1.305-1.747l-1.41.063c.02.463-.169.947-.716 1.137.358-.127-.421.316-.484.358-.274.19-.548.357-.821.547-.59.4-1.18.779-1.726 1.2-1.263.926-2.421 1.979-3.768 2.757.126.506 0 1.137.231 1.621.274.653.969.884 1.684.905 1.158-1.242 2.084-2.694 3.137-4.041v.042ZM11.71 24.586c.968-4.547 2.252-9.01 5.304-12.672-.905.042-1.81.042-2.694.084-.21 0-.421 0-.632.021.295.337.421.8.169 1.242-.421.716-.947 1.348-1.474 1.958-1.178 1.726-2.105 3.62-3.094 5.473.632.505.947 1.368 1.242 2.168.253.653.61 1.347 1.158 1.726h.02ZM38.064 13.935c-.695-.105-.884-.694-.737-1.22-.19 0-.358-.043-.547-.043-.61 0-.926-.442-1.01-.926-1.832-.02-3.684-.063-5.516-.084-3.852 0-7.704.063-11.535.19.232.252.358.61.21.968-.652 1.663-1.241 3.347-1.83 5.03-.106 2-.422 3.958-.822 5.916 1.095.168 2.168.926 3.031 1.705.674.59 1.432 1.22 2.232 1.642-.59-3.305-.547-6.673-1.053-10.02-.105-.779.506-1.284 1.116-1.347.063-.779.716-1.053 1.305-.884.505-.59 1.62-.632 1.852.358.78 3.283 3.263 5.599 5.263 8.209 1.6 0 3.094 1.663 4.61 1.916a17.451 17.451 0 0 1-1.558-2.147c-1.39-2.21-3.157-4.168-4.105-6.631-.315-.842.422-1.347 1.116-1.284 0-.042-.042-.063-.063-.105-.631-1.221 1.158-2.295 1.831-1.137.295-.084.61-.084.863.084.632.442 1.116 1.01 1.558 1.663-.105-.674.442-1.516 1.326-1.326.042 0 .063 0 .084.02.127-.525.61-.989 1.305-.8 2.021.527 3.768 1.811 5.768 2.443.484.147.926.316 1.368.505.043-.042.106-.063.169-.105.105-.042.21-.042.295-.042.484.063.947.526 1.284-.21.147-.296.126-.653.126-.97v-.441c-2.673.105-5.22-.505-7.915-.927h-.02Z" fill="#D1AB6D"/><path d="M39.812 18.945c-1.62-.631-3.115-2.062-4.778-2.4a.917.917 0 0 1-.358-.147c.105.19.21.358.337.548 1.368 1.178 2.757 2.357 4.189 3.473.21-.168.42-.337.673-.442.653-.274 1.474-.232 2.19-.337-.758-.19-1.516-.4-2.253-.695Z" fill="#D1AB6D"/><path d="M34.486 6.988c-3.157-1.01-7.22-1.62-11.661-1.62-4.442 0-8.505.61-11.662 1.62H4.574v5.389c0 3.873 8.168 7.01 18.25 7.01 10.083 0 18.25-3.137 18.25-7.01V6.988h-6.588Z" fill="#F39C12"/><path d="M41.075 6.989c0 3.873-8.168 7.01-18.25 7.01-10.083 0-18.25-3.137-18.25-7.01C4.574 3.115 12.741 0 22.824 0c10.082 0 18.25 3.136 18.25 6.989Z" fill="#F1C40F"/><path d="M31.013 10.188c2.063-1.347 4.105-2.674 6.063-3.958.905-.589 1.831-1.157 2.757-1.747-.126-.105-.231-.231-.379-.337-1.094.737-2.189 1.495-3.284 2.253a233.124 233.124 0 0 0-5.178 3.789h.021ZM13.373 12.988a76.572 76.572 0 0 1 3.558-2.905C20.572 6.673 24.53 3.368 28.676.4a46.866 46.866 0 0 0-5.851-.379c-10.083 0-18.25 3.137-18.25 6.99 0 2.546 3.536 4.756 8.798 5.977ZM36.675 3.41l.821-.568a15.471 15.471 0 0 0-1.031-.485c-2.547 2.105-5.031 4.253-7.43 6.315-.78.695-1.558 1.39-2.316 2.084a213.068 213.068 0 0 1 9.956-7.367v.02ZM20.149 13.914c2.505-2.4 5.073-4.736 7.683-7.01-3.115 2.168-6.062 4.526-8.988 6.926.42.042.863.063 1.305.084ZM37.809 10.271c-.421.253-.821.527-1.242.78-.695.441-1.368.883-2.063 1.325.147-.042.295-.105.442-.147.021 0 .042-.02.063-.042l2.779-1.894.02-.021Z" fill="#FFDE59"/><path d="M10.613 27.912c0 .568-.463 1.052-1.053 1.052-.59 0-1.052-.463-1.052-1.052 0-.59.463-1.053 1.052-1.053.59 0 1.053.463 1.053 1.053ZM14.13 31.721a.822.822 0 0 1-.82.821.836.836 0 0 1-.822-.82c0-.443.38-.822.821-.822.442 0 .821.38.821.821ZM15.14 30.396a.512.512 0 0 1-.506.505.512.512 0 0 1-.505-.505c0-.274.232-.505.505-.505.274 0 .505.231.505.505ZM12.278 35.09a1.5 1.5 0 0 1-1.494 1.495 1.5 1.5 0 0 1-1.495-1.495 1.5 1.5 0 0 1 1.495-1.494 1.5 1.5 0 0 1 1.494 1.494ZM14.636 35.174c0 .273-.21.484-.484.484a.476.476 0 0 1-.484-.484c0-.274.21-.484.484-.484s.484.21.484.484ZM22.823 35.406c0 .736-.61 1.347-1.347 1.347s-1.347-.61-1.347-1.347.61-1.347 1.347-1.347 1.347.61 1.347 1.347ZM23.391 32.838a.279.279 0 0 1-.274.274.279.279 0 0 1-.273-.274c0-.147.126-.273.273-.273.148 0 .274.126.274.273ZM32.003 35.532c0 .8-.653 1.453-1.453 1.453s-1.452-.653-1.452-1.453.652-1.473 1.452-1.473c.8 0 1.453.652 1.453 1.473ZM32.231 33.385a.557.557 0 0 1-.547.547.557.557 0 0 1-.547-.547c0-.294.252-.547.547-.547.295 0 .547.252.547.547ZM33.18 30.27a1.32 1.32 0 0 1-1.326 1.326 1.32 1.32 0 0 1-1.327-1.326c0-.737.59-1.327 1.326-1.327.737 0 1.327.59 1.327 1.326ZM38.232 31.721a.822.822 0 0 1-.821.821.836.836 0 0 1-.821-.82c0-.443.379-.822.82-.822.443 0 .822.38.822.821ZM37.412 34.48c0 .231-.19.42-.42.42a.422.422 0 0 1-.422-.42c0-.232.19-.421.421-.421.232 0 .421.189.421.42ZM28.275 31.028a.62.62 0 0 1-.632.632.62.62 0 0 1-.631-.632.62.62 0 0 1 .631-.631.62.62 0 0 1 .632.631Z" fill="#64307A"/><path d="M26.148 34.648c0 .337-.274.59-.59.59a.602.602 0 0 1-.59-.59c0-.316.274-.59.59-.59.316 0 .59.274.59.59ZM19.58 31.217a.822.822 0 0 1-.822.821.836.836 0 0 1-.82-.82c0-.443.378-.822.82-.822.443 0 .821.38.821.821ZM17.938 34.944c0 .252-.21.463-.463.463a.467.467 0 0 1-.463-.463c0-.253.21-.464.463-.464.252 0 .463.211.463.464ZM24.971 38.605c0 .59-.484 1.073-1.073 1.073-.59 0-1.074-.484-1.074-1.073 0-.59.484-1.074 1.074-1.074.59 0 1.073.484 1.073 1.074ZM27.938 36.121c0 .253-.21.463-.463.463a.467.467 0 0 1-.463-.463c0-.252.21-.463.463-.463.252 0 .463.21.463.463ZM35.623 33.343a.8.8 0 1 1-1.599 0 .8.8 0 0 1 1.6 0ZM17.939 28.733a.822.822 0 0 1-1.642 0 .822.822 0 0 1 1.642 0ZM10.025 32.438c0 .674-.548 1.221-1.2 1.221-.653 0-1.2-.547-1.2-1.22a1.2 1.2 0 0 1 1.2-1.2c.652 0 1.2.547 1.2 1.2ZM7.898 25.723a.755.755 0 0 1-.757.757.755.755 0 0 1-.758-.757c0-.421.337-.758.758-.758.42 0 .757.337.757.758ZM15.877 37.595a.611.611 0 1 1-1.222-.001.611.611 0 0 1 1.222 0Z" fill="#9B59B6"/></svg>