<svg width="62" height="51" viewBox="0 0 62 51" fill="none" xmlns="http://www.w3.org/2000/svg"><path d="M9.763 28.223c-.041-.98-.041-2.02.245-2.96.183-.612.632-1.428 1.306-1.632.836-.245 1.469.53 1.591 1.286-.245-1.653-.081-3.939.388-5.551a6.845 6.845 0 0 1 1.347-2.449c.816-.898 1.51-.918 2.183.102-.183-.286.245-1.449.327-1.755.184-.632.428-1.265.735-1.857.469-.898 3.224-4.796 4.326-2.53-.245-.49 1.408-2.123 1.714-2.408.714-.653 1.755-1.102 2.755-.94 1.02.184 1.96 1.123 1.755 2.225 1.102-.775 2.735.245 3.04 1.551.307 1.306-.244 2.653-.795 3.877-1.367 3.082-2.714 6.123-3.796 9.286-.877 2.51-3.836 4.571-5.857 6.183-2.51 2-5.244 3.735-8.101 5.183a49.968 49.968 0 0 1-4.53 2c-1.225.47-3.143.653-4.205 1.368 2.51-1.633 4.306-4.245 5.123-7.122.347-1.225.55-2.551.49-3.857h-.041Z" fill="#12826C"/><path d="M17.355 42.67c.837.51 1.755 1 2.714 1.184.633.123 1.551.123 2.04-.387.613-.613.225-1.551-.387-2 1.347 1 3.429 1.938 5.061 2.285.898.184 1.918.184 2.796-.02 1.184-.286 1.53-.898.96-1.96.162.286 1.387.47 1.693.552a9.201 9.201 0 0 0 1.98.224c1.02 0 5.754-.571 4.285-2.612.306.429 2.53-.224 2.938-.367.919-.327 1.796-1.02 2.123-2 .326-.98-.061-2.265-1.143-2.592 1.204-.592 1.061-2.51.061-3.408-1-.898-2.449-1.04-3.775-1.143-3.367-.265-6.673-.51-9.98-1.06-2.632-.43-5.836 1.203-8.223 2.224a46.996 46.996 0 0 0-12.306 7.713c-1 .858-2.06 2.45-3.204 3.062 2.633-1.429 5.796-1.776 8.694-1.123 1.245.286 2.51.735 3.612 1.408l.061.02Z" fill="#12826C"/><path d="M25.64 37.609a8.605 8.605 0 0 1-3.612 1.388c-1.081.163-2.102.02-3.183-.143-1.041-.163-2.061-.674-3.123-.572-1.183.123-2.306.694-3.408 1.102-3.204 1.164-7.142 1.408-10.51 2.062 1.266-.245 3.082-2.164 4.103-2.96 2.06-1.632 4.244-3.285 5.693-5.55a31.934 31.934 0 0 0 2.143-3.939c.55-1.204 1.306-2.204 2.734-2.347-.224-2.183.613-4.469 2.184-6 .592-.591 1.49-1.101 2.245-.734-.49-.245 1.163-2.898 1.367-3.143.735-.877 1.306-1.775 2.204-2.53.47-.388 1.02-.776 1.633-.735.612.041 1.143.796.796 1.286a11.797 11.797 0 0 1 4.163-4.51c.775-.49 1.673-.898 2.57-.714.899.163 1.674 1.142 1.327 1.979.327-.837 1.98-1.571 2.735-1.898a8.83 8.83 0 0 1 3.47-.673c2.57 0 4.795 1.204 6.55 3.06 1.51 1.613 2.102 3.919.673 5.817.51 1.47.266 3.183-.653 4.449a4.85 4.85 0 0 1-4.04 1.959c.428 1.816-.184 3.816-1.51 5.101-1.347 1.286-3.368 1.796-5.163 1.307a7.48 7.48 0 0 1-3.633 4.612c-1.755.98-3.918 1.183-5.836.591A8.403 8.403 0 0 1 25.7 37.63l-.06-.02Z" fill="#16A085"/><path d="M6.847 49.304c3-3.285 6.285-6.142 9.795-8.877 1.551-1.204 7.204-5.04 6.04-7.183-1.387-2.53-11.264 5.142-12.713 6.081-1.632 1.04-3.244 2.204-5 3-1.49.673-3.285 1.061-4.367 2.367-1.285 1.572-.122 4.367 1.286 5.47.796.632 1.857 1 2.837.734.877-.245 1.53-.939 2.142-1.612l-.02.02Z" fill="#E8F1C6"/><path d="M2.786 46.693c-.653-.796-1.53-1.245-2.306-.551-.837.775-.408 2 0 2.877.265.571.735 1.102 1.326 1.347.674.286 1.613.102 1.919-.653.285-.714-.204-2.102-.96-3.02h.02Z" fill="#F1C40F"/><path d="M34.521 21.102c.326-.633.592-1.286.939-1.898a44.439 44.439 0 0 1 5.122-7.469c2-2.347 4.143-4.347 6.694-6.04a24.632 24.632 0 0 1 3.897-2.123c1.347-.592 2.857-.735 4.163-1.408-3.469 1.796-6.49 4.347-9.04 7.306-2.857 3.326-5.734 6.653-8.591 9.979A21.322 21.322 0 0 0 47.01 14c-4.51 5.306-10.346 8.877-16.346 12.224.857-1.204 1.694-2.285 2.694-3.347.47-.51.837-1.142 1.143-1.775h.02ZM37.213 7.102a31.689 31.689 0 0 1-7.714 17.876c-2.184 2.49-4.755 4.633-7.49 6.53-2.632 1.837-5.673 3.184-8.224 5.102 6.53-7.346 12.816-14.877 18.632-22.794.837-1.143 1.653-2.286 2.47-3.429.53-.735 2.224-2.408 2.305-3.285h.02Z" fill="#2ECC71"/><path d="M32.337 28.365c2.041-1.224 4.041-2.469 5.918-3.918 5.143-3.959 9.326-8.979 12.734-14.468-.591.938-.734 2.53-1.122 3.591a40.883 40.883 0 0 1-1.51 3.674c-2.245 4.856-5.408 9.448-9.55 12.978-4.572 3.878-10.47 6.408-16.143 8.225-1.612.51-3.224.959-4.877 1.326-.857.184-1.714.367-2.571.51-.592.102-1.694.061-2.204.347 1.836-1.082 3.755-2.04 5.57-3.143 2.674-1.632 5.123-3.693 7.735-5.428 1.96-1.285 3.98-2.47 5.98-3.673l.04-.02Z" fill="#2ECC71"/><path d="M22.542 29.386c5.346-5.203 10.713-10.407 16.611-14.999C46.112 8.98 54.213 4.653 61.743 0c-4.53 2.653-8.672 6-12.325 9.755-3.735 3.857-6.796 8.224-10.245 12.305-3.959 4.673-8.754 8.653-14.142 11.612a49.781 49.781 0 0 1-6.959 3.163c-2 .735-4.856 1.082-6.51 2.47 3.837-3.184 7.408-6.45 10.98-9.919Z" fill="#35EB82"/></svg>