<svg width="35" height="75" viewBox="0 0 35 75" fill="none" xmlns="http://www.w3.org/2000/svg"><path d="M34 54.646c0 10.736-7.393 19.439-16.492 19.439-9.1 0-16.492-8.703-16.492-19.439s7.393-19.421 16.492-19.421 16.491 8.702 16.491 19.421Z" fill="#D35400"/><path d="M29.968 67.346a59.016 59.016 0 0 1-4.428 2.999A49.013 49.013 0 0 1 18.75 68a49.875 49.875 0 0 0 5.962-3.36 49.62 49.62 0 0 0 5.98 1.637c.19-.31.397-.603.569-.913a46.105 46.105 0 0 1-5.48-1.43c1.706-1.155 3.395-2.465 5.1-3.93.794.207 1.569.396 2.344.552.087-.328.156-.655.224-.983-.55-.12-1.102-.24-1.654-.379.69-.62 1.362-1.258 2.05-1.93.053-.517.104-1.051.122-1.585a64.13 64.13 0 0 1-3.344 3.205 48.2 48.2 0 0 1-5.721-1.982 57.574 57.574 0 0 0 4.636-3.843 50.48 50.48 0 0 0 4.48 1.362c0-.362-.034-.707-.051-1.051a46.933 46.933 0 0 1-3.602-1.086c1-.965 1.999-2 2.981-3.068-.103-.379-.207-.758-.327-1.137a60.828 60.828 0 0 1-3.74 3.826 50.223 50.223 0 0 1-5.135-2.258 65.867 65.867 0 0 0 4.24-3.826 55.15 55.15 0 0 0 4.48 1.793c-.138-.431-.293-.845-.466-1.241a61.131 61.131 0 0 1-3.257-1.31 56.434 56.434 0 0 0 1.69-1.81c-.19-.292-.363-.602-.57-.895-.706.775-1.395 1.533-2.102 2.257a50.909 50.909 0 0 1-4.618-2.499 56.764 56.764 0 0 0 3.412-3.36c-.259-.224-.534-.414-.81-.62a54.168 54.168 0 0 1-3.516 3.412 54.735 54.735 0 0 1-4.308-3.033 62.753 62.753 0 0 0 3.102-2.723c-.396-.12-.793-.207-1.19-.293a63.99 63.99 0 0 1-2.722 2.344 56.207 56.207 0 0 1-2.723-2.344c-.396.086-.792.172-1.189.293a73.15 73.15 0 0 0 3.102 2.723 58.133 58.133 0 0 1-4.308 3.033 65.21 65.21 0 0 1-3.516-3.43c-.275.207-.551.397-.81.62a69.213 69.213 0 0 0 3.413 3.361A50.905 50.905 0 0 1 6.859 44.6a66.313 66.313 0 0 1-2.102-2.258c-.207.293-.38.586-.569.897.569.62 1.12 1.223 1.689 1.809-1.103.5-2.189.913-3.257 1.31-.172.413-.328.827-.465 1.24a44.96 44.96 0 0 0 4.48-1.792 60.714 60.714 0 0 0 4.24 3.826 54.336 54.336 0 0 1-5.136 2.258c-1.258-1.172-2.499-2.465-3.74-3.826a28.2 28.2 0 0 0-.327 1.137 56.239 56.239 0 0 0 2.981 3.068c-1.223.43-2.43.775-3.601 1.085L1 54.404c1.448-.379 2.947-.81 4.48-1.36a57.566 57.566 0 0 0 4.636 3.842 51.51 51.51 0 0 1-5.721 1.982 57.762 57.762 0 0 1-3.343-3.206c.017.535.069 1.069.12 1.586a42.663 42.663 0 0 0 2.051 1.93c-.551.138-1.103.276-1.654.38.069.327.138.654.224.981a65.209 65.209 0 0 0 2.343-.551 56.977 56.977 0 0 0 5.101 3.929 49.645 49.645 0 0 1-5.48 1.43c.173.31.38.62.569.914a49.647 49.647 0 0 0 5.98-1.637 55.15 55.15 0 0 0 5.962 3.36 51.403 51.403 0 0 1-6.79 2.344 54.245 54.245 0 0 1-4.428-2.999c1.206 1.637 2.62 3.016 4.222 4.102h.069c1 .585 1.999 1.137 2.981 1.637 1.448.568 2.964.896 4.55.965a50.084 50.084 0 0 1-6.17-2.964 49.13 49.13 0 0 0 6.807-2.5 52.363 52.363 0 0 0 6.807 2.5 50.084 50.084 0 0 1-6.17 2.964 14.129 14.129 0 0 0 4.567-.965c.983-.5 1.982-1.052 2.982-1.637h.069c1.585-1.086 3.015-2.482 4.222-4.102l-.018.017Zm-.275-7.651a58.316 58.316 0 0 1-5.118 3.843 51.196 51.196 0 0 1-5.963-2.55 52.212 52.212 0 0 0 5.325-3.361 52.047 52.047 0 0 0 5.773 2.068h-.017Zm-6.859-2.55a56.276 56.276 0 0 1-5.325 3.274 54.175 54.175 0 0 1-5.325-3.274 49.723 49.723 0 0 0 5.325-2.81 49.723 49.723 0 0 0 5.325 2.81ZM12.718 49.82a53.676 53.676 0 0 0 4.791-2.946 53.677 53.677 0 0 0 4.79 2.947 56.01 56.01 0 0 1-4.79 3.326 55.993 55.993 0 0 1-4.79-3.326Zm15.734 2.844a59.933 59.933 0 0 1-4.653 3.791 53.518 53.518 0 0 1-5.308-2.723c1.586-1 3.189-2.12 4.791-3.395a51.664 51.664 0 0 0 5.17 2.327Zm-5.721-9.875a52.433 52.433 0 0 0 4.67 2.551 59.613 59.613 0 0 1-4.24 3.774 54.84 54.84 0 0 1-4.773-2.878 58.43 58.43 0 0 0 4.343-3.447Zm-5.222-3.636a51.518 51.518 0 0 0 4.343 3.068 57.379 57.379 0 0 1-4.343 3.395 57.379 57.379 0 0 1-4.343-3.395 55.827 55.827 0 0 0 4.343-3.068ZM7.6 45.34a52.428 52.428 0 0 0 4.67-2.55 58.409 58.409 0 0 0 4.343 3.446 52.398 52.398 0 0 1-4.774 2.878A56.476 56.476 0 0 1 7.6 45.34Zm-1.034 7.324a51.657 51.657 0 0 0 5.17-2.327 61.515 61.515 0 0 0 4.79 3.395 50.066 50.066 0 0 1-5.307 2.723 59.932 59.932 0 0 1-4.653-3.791Zm-1.24 7.031a53.336 53.336 0 0 0 5.772-2.068 55.401 55.401 0 0 0 5.325 3.36 53.84 53.84 0 0 1-5.962 2.55 55.078 55.078 0 0 1-5.118-3.842h-.018Zm6.203 4.532a50.957 50.957 0 0 0 5.98-2.654 50.957 50.957 0 0 0 5.98 2.654 49.951 49.951 0 0 1-5.98 3.24 49.959 49.959 0 0 1-5.98-3.24Z" fill="#8A3700"/><path d="M14.543 48.977a52.536 52.536 0 0 0 2.947 2.016 49.808 49.808 0 0 0 2.947-2.016c-1-.586-1.982-1.19-2.947-1.844a52.501 52.501 0 0 1-2.947 1.844ZM20.164 45.236a54.738 54.738 0 0 0 2.878 1.706 69.16 69.16 0 0 0 2.62-2.292 64.866 64.866 0 0 1-2.827-1.568 69.767 69.767 0 0 1-2.67 2.154ZM14.219 56.318a50.167 50.167 0 0 0 3.291 1.965 50.196 50.196 0 0 0 3.292-1.965 55.544 55.544 0 0 1-3.292-1.775 50.596 50.596 0 0 1-3.291 1.775ZM9.34 44.65a47.95 47.95 0 0 0 2.62 2.292 54.738 54.738 0 0 0 2.877-1.706 50.347 50.347 0 0 1-2.671-2.154A64.833 64.833 0 0 1 9.34 44.65ZM11.339 54.335a56.802 56.802 0 0 0 3.24-1.62 51.692 51.692 0 0 1-2.964-2.137 52.15 52.15 0 0 1-3.154 1.448c.948.81 1.913 1.585 2.878 2.309ZM4.652 56.8c1.154-.327 2.292-.723 3.429-1.137a74.545 74.545 0 0 1-2.844-2.395 65.1 65.1 0 0 1-3.257 1.016 61.758 61.758 0 0 0 2.672 2.534V56.8ZM3.482 47.236c.81.862 1.637 1.706 2.482 2.516a52.335 52.335 0 0 0 3.05-1.31 57.451 57.451 0 0 1-2.62-2.395c-.965.43-1.947.827-2.93 1.189h.018ZM26.898 69.724c.276.069.535.103.793.172a16.398 16.398 0 0 0 1.74-1.878 54.413 54.413 0 0 1-2.533 1.706ZM5.547 68.018a17.98 17.98 0 0 0 1.74 1.878c.259-.052.517-.103.793-.172a54.412 54.412 0 0 1-2.533-1.706ZM31.518 47.236a47.339 47.339 0 0 1-2.93-1.19 57.504 57.504 0 0 1-2.62 2.396c1.017.465 2.034.914 3.051 1.31a68.322 68.322 0 0 0 2.482-2.516h.017ZM14.234 59.936a58.972 58.972 0 0 1-3.274-2.12c-1.172.483-2.344.931-3.55 1.327a56.593 56.593 0 0 0 3.154 2.31 50.886 50.886 0 0 0 3.653-1.5l.017-.017ZM12.476 39.291a53.013 53.013 0 0 0 2.585-1.792 76.49 76.49 0 0 1-1.81-1.62 15.941 15.941 0 0 0-2.946 1.292 62.16 62.16 0 0 0 2.171 2.12ZM20.422 52.697a43.616 43.616 0 0 0 3.24 1.62c.965-.724 1.93-1.499 2.878-2.309a52.16 52.16 0 0 1-3.154-1.448 61.61 61.61 0 0 1-2.964 2.137ZM32.242 50.872c.466.138.948.276 1.448.414 0-.224-.035-.431-.052-.655-.052-.328-.138-.655-.207-.983-.396.414-.792.828-1.189 1.224ZM25.21 40.945c.897.517 1.81 1 2.724 1.447.43-.448.861-.913 1.292-1.396a17.426 17.426 0 0 0-2.033-2.033c-.672.69-1.327 1.361-1.982 1.999v-.017ZM21.195 63.452a48.02 48.02 0 0 1-3.705-1.706 65.874 65.874 0 0 1-3.705 1.706 50.35 50.35 0 0 0 3.705 1.93 50.353 50.353 0 0 0 3.705-1.93ZM3.05 63.503c1.31-.258 2.619-.551 3.894-.913a67.706 67.706 0 0 1-3.067-2.43c-.69.173-1.38.31-2.068.465.24.897.551 1.758.896 2.585.12.104.224.207.344.31v-.017ZM7.066 42.392c.913-.448 1.81-.93 2.723-1.447a72.077 72.077 0 0 1-2-1.982 17.285 17.285 0 0 0-2.016 2.033c.431.483.862.948 1.293 1.396ZM4.118 43.72s-.103-.121-.155-.173c-.052.103-.12.207-.19.293a2.74 2.74 0 0 1 .345-.12ZM2.757 50.871c-.414-.413-.793-.827-1.189-1.258-.12.552-.224 1.103-.31 1.672.5-.138 1-.259 1.5-.414ZM21.714 70.344a48.185 48.185 0 0 1-4.204-1.637 57.218 57.218 0 0 1-4.205 1.637 54.077 54.077 0 0 0 4.204 1.896 51.314 51.314 0 0 0 4.205-1.896ZM9.633 68.278a45.296 45.296 0 0 0 4.17-1.362 48.86 48.86 0 0 1-3.635-2.137c-1.327.431-2.671.828-4.016 1.155a50.93 50.93 0 0 0 3.481 2.326v.018ZM33.018 60.608a61.051 61.051 0 0 1-1.896-.448c-1 .845-2.033 1.672-3.067 2.43a49.16 49.16 0 0 0 3.894.913c.086-.069.224-.206.362-.31.155-.379.328-.758.465-1.154.087-.483.173-.948.259-1.43h-.017ZM31.777 58.248c.638.155 1.241.293 1.861.414.138-.81.242-1.638.294-2.465a47.75 47.75 0 0 1-2.155 2.051ZM20.766 59.936a50.89 50.89 0 0 0 3.653 1.499 50.938 50.938 0 0 0 3.154-2.31A51.207 51.207 0 0 1 24.04 57.8a66.279 66.279 0 0 1-3.274 2.12v.017ZM32.999 54.267a59.88 59.88 0 0 1-3.257-1 47.44 47.44 0 0 1-2.844 2.396c1.138.43 2.292.81 3.43 1.137a52.078 52.078 0 0 0 2.654-2.533h.017ZM28.847 65.95a48.206 48.206 0 0 1-4.016-1.155 60.606 60.606 0 0 1-3.636 2.137c1.379.517 2.775.965 4.17 1.361a58.254 58.254 0 0 0 3.482-2.326v-.017ZM17.492 43.41a49.177 49.177 0 0 0 2.637-2.051 51.586 51.586 0 0 1-2.637-1.896 60.498 60.498 0 0 1-2.637 1.895c.862.724 1.758 1.396 2.637 2.051ZM19.938 37.499c.844.62 1.706 1.223 2.584 1.792a49.758 49.758 0 0 0 2.172-2.12 15.302 15.302 0 0 0-2.93-1.292c-.603.551-1.206 1.086-1.81 1.62h-.017ZM30.883 43.72c.12.05.224.085.345.137-.052-.103-.121-.207-.19-.31-.052.052-.104.12-.155.172Z" fill="#F39C12"/><path d="M20.076 24.126c-4.464-13.958 5.17-19.11 9.426-19.524-4.17 2.653 0 12.338-6.135 19.042-.638.707-3.291.482-3.291.482ZM14.922 24.126c4.464-13.958-5.17-19.11-9.426-19.524 4.17 2.653 0 12.338 6.135 19.042.638.707 3.291.482 3.291.482Z" fill="#186B3B"/><path d="M11.547 26.297c0 3.774 2.671 12.029 5.962 12.029 3.292 0 5.963-8.255 5.963-12.029C23.472 13.597 17.509 0 17.509 0s-5.962 12.7-5.962 26.297Z" fill="#1F8C4D"/><path d="M17.336 27.056C20.145 12.666 31.053 12.786 35 14.493c-4.929.327-5.946 10.805-14.545 13.735-.896.31-3.12-1.155-3.12-1.155v-.017Z" fill="#1DA155"/><path d="M17.664 27.056C14.854 12.666 3.946 12.786 0 14.493c4.929.327 5.945 10.805 14.545 13.735.896.31 3.119-1.155 3.119-1.155v-.017Z" fill="#1DA155"/><path d="M12.082 30.141c0 2.568 2.43 8.186 5.411 8.186 2.981 0 5.411-5.618 5.411-8.186 0-8.65-5.41-17.905-5.41-17.905s-5.412 8.651-5.412 17.905Z" fill="#186B3B"/><path d="M17.94 33.742c1.62-9.34 9.874-10.15 14.08-9.34-3.344 1.568-10.72 13.527-13.701 11.511-.793-.534-.38-2.154-.38-2.154v-.017ZM17.06 33.742c-1.62-9.34-9.875-10.15-14.08-9.34 3.344 1.568 10.72 13.527 13.7 11.511.793-.534.38-2.154.38-2.154v-.017Z" fill="#27AE60"/><path d="M12.598 33.967c0 1.361 2.188 4.377 4.911 4.377 2.723 0 4.911-2.999 4.911-4.377 0-4.619-4.911-9.565-4.911-9.565s-4.911 4.619-4.911 9.565Z" fill="#1F8C4D"/><path d="M17.493 35.207c-2.878 0-5.584.879-7.945 2.413.19-.035.38-.052.586-.052 2.154 0 3.188 2.43 2.964 4.325 1.138-1.05 2.913-1.344 4.326-.689 1.413.655 2.343 2.206 2.274 3.74 1.103-.793 2.706-.81 3.826-.035 1.12.758 1.706 2.258 1.379 3.567 1.327.052 2.395 1.207 2.774 2.465.38 1.258.224 2.62.07 3.929.447 1.172.223 2.481 0 3.705-.121.69-.26 1.396-.483 2.05-.345 1-.948 1.93-1.706 2.672a6.027 6.027 0 0 1-1.207 3.153c-.861 1.12-2.085 1.879-3.377 2.447a15.264 15.264 0 0 1-6.67 1.293c-2.877-.104-5.497-1.293-8.288-1.62C8.6 72 13.253 74.085 17.493 74.085c9.116 0 16.492-8.703 16.492-19.44 0-10.735-7.393-19.42-16.492-19.42v-.018Z" fill="#8D734E" style="mix-blend-mode:multiply" opacity=".7"/><path d="M18.163 36.224c.862-4.12 7.376-5.463 9.875-5.187-2.792 1.62-3.154 6.875-9.289 6.893-.862 0-.586-1.706-.586-1.706ZM16.835 36.224c-.861-4.12-7.375-5.463-9.874-5.187 2.792 1.62 3.154 6.875 9.289 6.893.844 0 .585-1.706.585-1.706Z" fill="#186B3B"/><path d="M12.598 35.88c-.034 1.36 2.189 2.447 4.911 2.447 2.723 0 4.946-1.069 4.912-2.447-.052-1.724-4.912-4.843-4.912-4.843s-4.86 3.12-4.91 4.843Z" fill="#27AE60"/></svg>