<svg width="212" height="61" viewBox="0 0 212 61" fill="none" xmlns="http://www.w3.org/2000/svg">
<path d="M211.37 11.9543H0C0 5.36029 5.36028 0 11.9543 0H199.416C206.01 0 211.37 5.36029 211.37 11.9543Z" fill="#E67E22"/>
<path d="M204.967 30.9492H6.40234V53.1987C8.50817 57.7081 13.0602 60.8563 18.3779 60.8563C25.6739 60.8563 31.5872 54.9429 31.5872 47.647C31.5872 54.9429 37.5005 60.8563 44.7965 60.8563C52.0924 60.8563 58.0058 54.9429 58.0058 47.647C58.0058 54.9429 63.9191 60.8563 71.2151 60.8563C78.5111 60.8563 84.4244 54.9429 84.4244 47.647C84.4244 54.9429 90.3377 60.8563 97.6337 60.8563C104.93 60.8563 110.843 54.9429 110.843 47.647C110.843 54.9429 116.756 60.8563 124.052 60.8563C131.348 60.8563 137.262 54.9429 137.262 47.647C137.262 54.9429 143.175 60.8563 150.471 60.8563C157.767 60.8563 163.68 54.9429 163.68 47.647C163.68 54.9429 169.593 60.8563 176.889 60.8563C184.185 60.8563 190.099 54.9429 190.099 47.647C190.099 54.9429 196.012 60.8563 203.308 60.8563C203.861 60.8563 204.414 60.8137 204.946 60.7499V30.9492H204.967Z" fill="#1D2A36"/>
<path d="M13.2093 41.8621C5.91332 41.8621 0 35.9488 0 28.6528V11.9551H26.4186V28.6528C26.4186 35.9488 20.5052 41.8621 13.2093 41.8621Z" fill="#F1C40F"/>
<path d="M39.6272 41.8621C32.3313 41.8621 26.418 35.9488 26.418 28.6528V11.9551H52.8365V28.6528C52.8365 35.9488 46.9232 41.8621 39.6272 41.8621Z" fill="#C0392B"/>
<path d="M66.0452 41.8621C58.7493 41.8621 52.8359 35.9488 52.8359 28.6528V11.9551H79.2546V28.6528C79.2546 35.9488 73.3412 41.8621 66.0452 41.8621Z" fill="#F1C40F"/>
<path d="M92.4867 41.8621C85.1907 41.8621 79.2773 35.9488 79.2773 28.6528V11.9551H105.696V28.6528C105.696 35.9488 99.7826 41.8621 92.4867 41.8621Z" fill="#C0392B"/>
<path d="M118.905 41.8621C111.609 41.8621 105.695 35.9488 105.695 28.6528V11.9551H132.114V28.6528C132.114 35.9488 126.201 41.8621 118.905 41.8621Z" fill="#F1C40F"/>
<path d="M145.323 41.8621C138.027 41.8621 132.113 35.9488 132.113 28.6528V11.9551H158.532V28.6528C158.532 35.9488 152.619 41.8621 145.323 41.8621Z" fill="#C0392B"/>
<path d="M171.741 41.8621C164.445 41.8621 158.531 35.9488 158.531 28.6528V11.9551H184.95V28.6528C184.95 35.9488 179.036 41.8621 171.741 41.8621Z" fill="#F1C40F"/>
<path d="M198.162 41.8621C190.866 41.8621 184.953 35.9488 184.953 28.6528V11.9551H211.372V28.6528C211.372 35.9488 205.458 41.8621 198.162 41.8621Z" fill="#C0392B"/>
</svg>
