<svg width="37" height="125" viewBox="0 0 37 125" fill="none" xmlns="http://www.w3.org/2000/svg"><path d="M25.473 36.666V16.674H11.527v19.992C11.527 44.462 0 46.341 0 52.593v64.814c0 3.706 8.285 6.716 18.5 6.716s18.5-3.01 18.5-6.716V52.593c0-6.252-11.527-8.13-11.527-15.927Z" fill="#117D68"/><path d="M18.5 120.958c-9.34 0-14.641-2.573-15.336-3.705v-64.66c0-1.39 1.956-2.882 4.04-4.477 3.345-2.573 7.487-5.764 7.487-11.45V16.674h7.616v19.992c0 5.687 4.143 8.877 7.488 11.45 2.084 1.595 4.04 3.114 4.04 4.477v64.66c-.695 1.107-5.996 3.705-15.336 3.705Z" fill="#0E6957"/><path d="M3.164 53.803v63.476c.695 1.106 5.995 3.705 15.335 3.705s14.64-2.573 15.335-3.705V53.803H3.164Z" fill="#6E2119"/><path d="M25.473 16.672c0 1.39-3.113 2.548-6.973 2.548s-6.973-1.133-6.973-2.548 3.114-2.547 6.973-2.547c3.86 0 6.973 1.132 6.973 2.547Z" fill="#1ABC9C"/><path d="M23.748 16.674c0 1.055-2.341 1.904-5.249 1.904-2.908 0-5.249-.85-5.249-1.904 0-1.055 2.341-1.904 5.249-1.904 2.908 0 5.249.849 5.249 1.904Z" fill="#F1C40F"/><path d="M23.748 1.904H13.25v14.77h10.498V1.903Z" fill="#F1C40F"/><path d="M23.748 1.904c0 1.055-2.341 1.904-5.249 1.904-2.908 0-5.249-.849-5.249-1.904S15.591 0 18.499 0c2.908 0 5.249.85 5.249 1.904Z" fill="#FFDD57"/><path d="M33.834 53.802c0 3.088-6.87 5.584-15.335 5.584S3.164 56.89 3.164 53.802c0-3.087 6.87-5.583 15.335-5.583 8.466 0 15.335 2.496 15.335 5.583Z" fill="#912C21"/><path d="M16.029 5.84c0 .515-.36.927-.798.927-.437 0-.797-.412-.797-.927 0-.514.36-.926.797-.926.438 0 .798.412.798.926ZM18.5 9.752c0 .72-.438 1.312-1.004 1.312-.566 0-1.004-.592-1.004-1.312 0-.72.438-1.313 1.004-1.313.566 0 1.003.592 1.003 1.313ZM17.934 14.305c0 1.08-.617 1.956-1.363 1.956s-1.364-.875-1.364-1.956c0-1.08.618-1.955 1.364-1.955.746 0 1.363.874 1.363 1.955ZM20.094 12.839c0 .54-.258.952-.592.952-.334 0-.592-.438-.592-.952 0-.515.258-.952.592-.952.334 0 .592.437.592.952ZM16.029 10.807c0 .592-.36 1.055-.798 1.055-.437 0-.797-.463-.797-1.055 0-.592.36-1.055.797-1.055.438 0 .798.463.798 1.055Z" fill="#F39C12"/><path d="M35.792 82.979c0 13.585-7.745 24.572-17.29 24.572-9.546 0-17.291-11.012-17.291-24.572 0-13.56 7.745-24.598 17.29-24.598 9.546 0 17.291 11.012 17.291 24.598Z" fill="#F1DF98"/><path d="M33.63 82.98c0 11.862-6.767 21.485-15.13 21.485-8.362 0-15.129-9.623-15.129-21.484 0-11.862 6.767-21.485 15.13-21.485 8.362 0 15.129 9.623 15.129 21.485Z" fill="#C0392B"/><path d="M32.161 82.979c0 10.73-6.123 19.426-13.662 19.426-7.54 0-13.663-8.697-13.663-19.426 0-10.73 6.124-19.426 13.663-19.426 7.539 0 13.662 8.697 13.662 19.426Z" fill="#F1DF98"/><path d="M11.45 85.423c1.748 0 3.165-1.578 3.165-3.525 0-1.947-1.417-3.525-3.165-3.525s-3.165 1.578-3.165 3.525c0 1.947 1.417 3.525 3.165 3.525ZM21.486 81.898c0 1.956-1.415 3.525-3.165 3.525s-3.165-1.57-3.165-3.525c0-1.955 1.415-3.525 3.165-3.525s3.165 1.57 3.165 3.525ZM18.322 88.924c0 1.955-1.415 3.524-3.165 3.524s-3.165-1.569-3.165-3.524c0-1.956 1.415-3.526 3.165-3.526s3.165 1.57 3.165 3.526ZM21.486 95.972c0 1.93-1.415 3.525-3.165 3.525s-3.165-1.57-3.165-3.525c0-1.955 1.415-3.525 3.165-3.525s3.165 1.57 3.165 3.525ZM25.189 88.924c0 1.955-1.415 3.524-3.165 3.524s-3.165-1.569-3.165-3.524c0-1.956 1.415-3.526 3.165-3.526s3.165 1.57 3.165 3.526ZM28.353 81.898c0 1.956-1.415 3.525-3.165 3.525s-3.165-1.57-3.165-3.525c0-1.955 1.416-3.525 3.165-3.525 1.75 0 3.165 1.57 3.165 3.525Z" fill="#34495E"/><path d="M18.423 73.51c-.412-1.415-1.518-2.624-2.882-3.19-.334-.129-.746-.257-.9-.592-.18-.386.025-.85.386-1.106.36-.232.797-.283 1.209-.335.257 1.39 1.466 2.393 2.161 3.628.772 1.364 1.107 3.73.155 5.095-.438-.283-.052-1.03 0-1.416.102-.694.077-1.44-.13-2.11v.026ZM21.768 74.153c1.132-.669 2.47-.437 3.73-.437.515 0 2.934-.129 3.037-.952-.206 1.827-1.03 4.297-3.01 4.785-.901.206-1.853.13-2.805.026-1.313-.128-2.6-.257-3.911-.386a9.102 9.102 0 0 1 2.598-2.83c.129-.077.258-.154.36-.232v.026Z" fill="#27AE60"/></svg>